<?xml version="1.0" standalone="no"?>
<!DOCTYPE svg PUBLIC "-//W3C//DTD SVG 20010904//EN"
 "http://www.w3.org/TR/2001/REC-SVG-20010904/DTD/svg10.dtd">
<svg version="1.0" xmlns="http://www.w3.org/2000/svg"
 width="200.000000pt" height="200.000000pt" viewBox="0 0 200.000000 200.000000"
 preserveAspectRatio="xMidYMid meet">

<g transform="translate(0.000000,200.000000) scale(0.100000,-0.100000)"
fill="#000000" stroke="none">
<path d="M497 1909 c-44 -50 -95 -118 -115 -152 -21 -34 -54 -79 -75 -100 -35
-35 -97 -156 -97 -188 0 -7 36 43 81 112 44 68 86 129 91 134 20 19 -16 -40
-74 -124 -48 -69 -58 -90 -53 -112 4 -18 -1 -43 -15 -71 -20 -41 -20 -42 -1
-18 20 24 20 24 14 3 -9 -36 8 -27 66 34 29 32 44 45 33 28 -11 -16 -29 -39
-41 -49 -12 -11 -21 -23 -21 -27 0 -5 -22 -44 -50 -87 -27 -43 -50 -85 -50
-92 0 -9 -6 -8 -19 4 -19 17 -20 17 -36 -8 -9 -14 -13 -31 -9 -37 4 -7 3 -9
-3 -6 -5 3 -19 -6 -30 -21 -33 -46 -36 -59 -4 -22 25 29 29 31 24 13 -8 -32
13 -29 31 5 8 15 34 47 57 72 48 50 44 40 -11 -35 -21 -27 -56 -82 -78 -121
-45 -78 -69 -97 -77 -61 -2 12 -10 81 -17 152 l-13 130 -3 -234 c-1 -129 0
-236 2 -238 9 -9 46 9 46 21 0 7 9 21 21 32 l21 19 -19 -35 c-10 -19 -21 -37
-24 -40 -10 -8 -41 -72 -37 -76 14 -13 62 29 89 78 18 32 35 56 37 53 2 -2
-18 -41 -45 -87 -77 -128 -96 -168 -79 -168 15 0 49 42 89 112 16 27 30 48 33
48 6 0 -29 -66 -55 -105 -22 -32 -27 -50 -12 -40 6 3 -2 -16 -16 -42 l-26 -48
28 25 29 25 -22 -32 c-20 -28 -20 -31 -5 -29 10 2 35 32 56 67 41 69 42 69 13
-4 -24 -59 -13 -72 22 -27 67 84 62 73 -23 -59 -39 -60 -49 -84 -50 -120 0
-25 -6 -55 -12 -66 -55 -99 -63 -121 -63 -168 0 -46 1 -48 18 -36 15 13 16 12
3 -3 -7 -10 -15 -33 -18 -53 l-5 -35 65 0 c43 0 67 4 70 13 4 10 6 10 6 0 1
-9 25 -13 84 -13 l82 0 53 80 c56 83 74 103 47 49 -16 -30 -16 -30 4 -19 12 6
21 15 21 20 0 5 17 27 38 49 36 38 109 134 145 191 17 27 17 38 7 121 -6 50
-20 126 -32 167 -24 90 -20 182 12 256 23 55 47 60 72 15 28 -49 94 -72 219
-77 l106 -4 39 39 c21 22 53 56 69 77 44 55 71 37 90 -62 12 -61 126 -104 221
-84 27 6 51 8 54 6 11 -12 -33 -142 -71 -208 -87 -153 -174 -251 -230 -259
-17 -2 -43 -29 -88 -88 -35 -46 -67 -83 -72 -82 -4 2 -6 -4 -3 -11 3 -9 -5
-22 -20 -31 -14 -10 -26 -22 -26 -29 0 -6 5 -4 11 4 9 12 9 11 4 -5 -20 -57
-20 -58 11 -50 16 4 40 8 53 10 13 1 34 15 48 31 l24 29 -17 -28 c-14 -23 -14
-27 -1 -27 8 0 24 15 36 33 11 17 21 26 21 19 0 -7 5 -10 11 -6 6 3 4 -4 -5
-17 -8 -14 -22 -44 -30 -67 -21 -58 0 -52 34 11 36 65 48 72 16 10 -14 -29
-26 -54 -26 -57 0 -2 35 -5 78 -5 l77 0 17 37 c10 20 29 51 44 67 29 34 22 16
-11 -30 -43 -59 -37 -97 9 -58 20 17 20 17 7 0 -13 -17 -6 -17 143 -16 86 1
156 3 156 5 0 1 -21 12 -46 24 l-46 21 23 25 c25 27 25 27 43 -28 3 -10 10
-18 17 -18 7 0 8 7 4 18 -4 9 -9 34 -12 55 -6 43 -20 57 -30 30 -10 -30 -44
-62 -59 -56 -8 3 -14 -1 -14 -8 0 -7 -3 -10 -6 -6 -4 3 3 23 15 43 l22 37 -21
22 -22 23 40 83 c22 46 38 87 36 91 -11 18 -45 6 -66 -22 -12 -16 -28 -30 -35
-30 -17 0 -16 10 3 31 16 17 15 19 -7 28 -53 22 -74 56 -36 56 6 0 17 11 24
25 6 13 22 31 34 40 18 14 20 20 10 38 -9 18 -9 21 3 16 9 -3 22 10 38 38 14
24 35 61 48 83 l24 40 -31 -29 -31 -28 -4 23 c-2 13 2 37 10 53 10 21 11 35 4
46 -14 22 -32 118 -30 160 1 19 9 48 20 65 27 44 23 53 -29 69 -30 9 -39 15
-25 15 13 1 20 5 17 11 -3 6 -3 15 1 21 4 7 12 1 21 -17 l13 -29 -5 40 c-3 22
-5 48 -5 58 0 9 -7 17 -15 17 -17 0 -19 27 -5 64 14 39 -3 39 -33 0 -22 -26
-28 -47 -31 -93 -2 -33 0 -61 5 -63 5 -2 -44 -3 -109 -3 -93 0 -123 -4 -147
-17 -16 -10 -46 -18 -66 -18 -33 0 -56 7 -184 54 -22 8 -53 16 -70 19 -16 3
-57 10 -90 16 -33 6 -91 10 -130 9 -67 -3 -148 18 -127 31 15 9 98 209 106
254 4 20 11 37 16 37 6 0 10 4 10 9 0 5 15 24 33 43 29 32 35 34 72 27 29 -5
45 -3 56 7 9 8 36 16 60 18 24 1 57 8 72 14 16 7 36 12 45 12 9 0 29 6 43 14
24 12 25 12 21 -9 -3 -19 0 -21 28 -17 17 2 34 11 37 18 3 8 13 14 22 14 9 0
27 7 40 16 18 13 25 14 31 4 4 -7 29 -16 56 -21 26 -5 57 -18 69 -29 32 -30
70 -26 95 10 12 17 25 28 29 25 5 -2 13 6 19 19 6 13 24 32 41 42 17 10 31 22
31 26 0 13 -12 9 -26 -9 -12 -16 -13 -15 -4 10 5 15 17 41 26 58 27 53 43 108
34 114 -5 3 -21 -16 -35 -42 -16 -31 -23 -38 -19 -22 3 15 1 30 -6 34 -6 4 -8
15 -5 25 4 14 1 17 -12 14 -10 -2 -27 3 -37 11 -17 13 -18 18 -7 41 24 55 31
54 -478 54 l-466 -1 -78 -90z m975 21 c-9 -16 -18 -27 -21 -25 -2 3 3 15 12
28 12 19 13 27 4 38 -10 11 -9 11 5 0 15 -11 15 -14 0 -41z m-861 -17 c-12
-20 -14 -14 -5 12 4 9 9 14 11 11 3 -2 0 -13 -6 -23z m463 -12 c4 -5 -3 -7
-14 -4 -23 6 -26 13 -6 13 8 0 17 -4 20 -9z m186 -25 c0 -2 -8 -10 -17 -17
-16 -13 -17 -12 -4 4 13 16 21 21 21 13z m274 -26 c-10 -16 -20 -28 -22 -26
-4 5 28 56 35 56 2 0 -4 -13 -13 -30z m-454 7 c0 -2 -15 -16 -32 -33 l-33 -29
29 33 c28 30 36 37 36 29z m385 -37 c-9 -16 -18 -30 -21 -30 -2 0 2 14 11 30
9 17 18 30 21 30 2 0 -2 -13 -11 -30z m-962 -11 c-10 -17 -24 -36 -32 -42 -8
-7 -2 7 14 31 32 49 45 57 18 11z m-63 -23 c0 -2 -8 -10 -17 -17 -16 -13 -17
-12 -4 4 13 16 21 21 21 13z m1060 -24 c0 -5 -7 -17 -15 -28 -14 -18 -14 -17
-4 9 12 27 19 34 19 19z m-73 -24 c-3 -8 -6 -5 -6 6 -1 11 2 17 5 13 3 -3 4
-12 1 -19z m123 -18 c-6 -11 -13 -20 -16 -20 -2 0 0 9 6 20 6 11 13 20 16 20
2 0 0 -9 -6 -20z m-1029 -7 c-6 -10 -25 -34 -42 -53 -32 -36 -23 -19 20 38 27
35 38 42 22 15z m-99 -22 c-9 -16 -18 -28 -21 -26 -4 5 27 55 34 55 2 0 -4
-13 -13 -29z m354 -2 c3 -6 -5 -3 -20 6 -14 10 -26 19 -26 22 0 7 39 -17 46
-28z m635 8 c-10 -9 -11 -8 -5 6 3 10 9 15 12 12 3 -3 0 -11 -7 -18z m-68 -2
c-3 -9 -8 -14 -10 -11 -3 3 -2 9 2 15 9 16 15 13 8 -4z m-703 -9 c0 -2 -7 -7
-16 -10 -8 -3 -12 -2 -9 4 6 10 25 14 25 6z m760 -16 c0 -5 -5 -10 -11 -10 -5
0 -7 5 -4 10 3 6 8 10 11 10 2 0 4 -4 4 -10z m-730 -14 c0 -2 -8 -10 -17 -17
-16 -13 -17 -12 -4 4 13 16 21 21 21 13z m-95 -68 c-43 -67 -87 -121 -51 -63
39 63 75 115 80 115 3 0 -11 -24 -29 -52z m-218 0 c-13 -18 -36 -54 -51 -80
-15 -27 -29 -48 -32 -48 -3 0 6 21 21 48 31 53 73 112 81 112 3 0 -6 -15 -19
-32z m118 -32 c-14 -18 -39 -62 -56 -96 -16 -34 -32 -60 -34 -58 -11 10 95
188 111 188 3 0 -7 -15 -21 -34z m-35 -146 c-12 -16 -24 -30 -26 -30 -3 0 4
14 16 30 12 17 24 30 26 30 3 0 -4 -13 -16 -30z m54 -10 c-15 -22 -29 -40 -31
-40 -5 0 3 15 29 53 30 43 31 32 2 -13z m89 15 c-3 -9 -8 -14 -10 -11 -3 3 -2
9 2 15 9 16 15 13 8 -4z m-233 -69 c0 -2 -8 -10 -17 -17 -16 -13 -17 -12 -4 4
13 16 21 21 21 13z m40 -37 c-6 -10 -13 -19 -16 -19 -2 0 0 8 5 19 6 10 7 22
3 26 -4 5 -1 5 6 1 9 -5 9 -12 2 -27z m65 -19 c-9 -16 -18 -30 -21 -30 -2 0 2
14 11 30 9 17 18 30 21 30 2 0 -2 -13 -11 -30z m-150 -10 c-9 -16 -18 -30 -21
-30 -2 0 2 14 11 30 9 17 18 30 21 30 2 0 -2 -13 -11 -30z m23 -115 c-18 -35
-34 -63 -36 -61 -4 5 56 126 63 126 3 0 -10 -29 -27 -65z m-88 -28 c0 -2 -10
-12 -22 -23 l-23 -19 19 23 c18 21 26 27 26 19z m540 -36 c0 -6 -5 -13 -10
-16 -9 -6 -40 -69 -40 -82 0 -3 10 1 23 9 15 11 29 13 45 7 21 -8 23 -7 16 14
-6 19 -5 20 10 8 9 -7 16 -19 16 -26 0 -7 10 -15 23 -19 24 -7 57 23 57 53 0
10 7 26 15 37 13 18 14 17 6 -12 -5 -17 -14 -41 -20 -52 -18 -34 -13 -49 17
-50 27 0 52 13 52 28 0 4 -10 11 -22 17 -20 9 -18 10 14 9 21 -1 43 -7 50 -14
16 -16 28 -15 28 3 0 8 5 15 10 15 15 0 13 -4 -35 -80 -45 -69 -49 -71 -116
-84 -58 -11 -210 38 -224 72 -17 39 -23 97 -12 121 5 15 9 30 8 34 -1 5 3 6 9
2 5 -3 10 -1 10 4 0 6 16 11 35 11 19 0 35 -4 35 -9z m-627 -98 c-23 -47 -40
-89 -38 -93 2 -4 -2 -7 -10 -7 -15 0 -13 5 34 97 29 57 50 90 55 90 1 0 -17
-39 -41 -87z m68 33 c-11 -25 -22 -46 -25 -46 -3 0 5 23 16 50 11 28 23 49 25
47 2 -2 -5 -25 -16 -51z m1237 -38 c-13 -44 -17 -76 -13 -106 6 -42 7 -43 25
-27 18 17 31 48 44 106 3 15 12 29 20 32 13 5 13 1 1 -32 -19 -55 -40 -94 -61
-113 -29 -25 -120 -32 -174 -13 -74 26 -109 75 -55 75 14 0 28 7 31 15 4 8 10
13 14 10 5 -3 21 -7 37 -9 15 -2 36 -7 45 -11 12 -5 20 -2 24 9 3 9 12 16 19
16 16 0 39 55 29 71 -4 7 -3 10 3 6 6 -4 13 2 16 13 3 11 7 20 10 20 3 0 -4
-28 -15 -62z m-995 37 c-3 -9 -8 -14 -10 -11 -3 3 -2 9 2 15 9 16 15 13 8 -4z
m-203 -20 c0 -13 -41 -83 -65 -110 l-27 -30 21 31 c11 17 17 35 13 39 -4 5 -1
4 7 0 11 -6 13 -4 8 9 -4 10 0 27 11 41 16 23 32 32 32 20z m1020 -8 c0 -2
-10 -12 -22 -23 l-23 -19 19 23 c18 21 26 27 26 19z m-890 -35 c0 -5 -7 -17
-15 -28 -14 -18 -14 -17 -4 9 12 27 19 34 19 19z m-89 -89 c-12 -20 -14 -14
-5 12 4 9 9 14 11 11 3 -2 0 -13 -6 -23z m-191 3 c0 -3 -4 -8 -10 -11 -5 -3
-10 -1 -10 4 0 6 5 11 10 11 6 0 10 -2 10 -4z m89 -129 c-27 -53 -52 -97 -55
-97 -3 0 18 45 47 100 28 56 53 99 55 98 2 -2 -19 -47 -47 -101z m82 76 c-12
-20 -14 -14 -5 12 4 9 9 14 11 11 3 -2 0 -13 -6 -23z m-18 -128 c-19 -36 -36
-65 -39 -65 -5 0 44 100 58 118 20 24 15 11 -19 -53z m307 -34 c0 -9 -7 -26
-16 -37 -14 -18 -15 -18 -4 5 7 12 10 32 7 42 -3 10 -1 17 4 13 5 -3 9 -13 9
-23z m-264 -33 c-13 -29 -28 -64 -35 -78 l-11 -25 6 25 c8 32 51 130 58 130 3
0 -5 -24 -18 -52z m1235 14 c-11 -16 -27 -35 -37 -42 -9 -8 -31 -38 -50 -67
-19 -29 -36 -53 -39 -53 -9 0 50 86 95 138 50 58 62 67 31 24z m-1191 -36 c0
-2 -8 -10 -17 -17 -16 -13 -17 -12 -4 4 13 16 21 21 21 13z m20 -76 c-12 -16
-24 -30 -26 -30 -3 0 4 14 16 30 12 17 24 30 26 30 3 0 -4 -13 -16 -30z m-120
-30 c-6 -11 -13 -20 -16 -20 -2 0 0 9 6 20 6 11 13 20 16 20 2 0 0 -9 -6 -20z
m230 -38 c0 -5 -7 -17 -15 -28 -14 -18 -14 -17 -4 9 12 27 19 34 19 19z m-334
-80 c-13 -27 -32 -54 -41 -62 -9 -7 0 14 21 48 43 74 54 81 20 14z m1204 34
c0 -2 -8 -10 -17 -17 -16 -13 -17 -12 -4 4 13 16 21 21 21 13z m-920 -36 c-12
-16 -24 -30 -26 -30 -3 0 4 14 16 30 12 17 24 30 26 30 3 0 -4 -13 -16 -30z
m-310 17 c0 -2 -10 -12 -22 -23 l-23 -19 19 23 c18 21 26 27 26 19z m171 -30
c-10 -9 -11 -8 -5 6 3 10 9 15 12 12 3 -3 0 -11 -7 -18z m207 3 c-7 -10 -14
-17 -17 -15 -4 4 18 35 25 35 2 0 -1 -9 -8 -20z m-268 -20 c-6 -11 -13 -20
-16 -20 -2 0 0 9 6 20 6 11 13 20 16 20 2 0 0 -9 -6 -20z m50 -10 c0 -5 -5
-10 -11 -10 -5 0 -7 5 -4 10 3 6 8 10 11 10 2 0 4 -4 4 -10z m1021 -38 c-23
-27 -41 -53 -41 -58 0 -5 -14 -25 -30 -44 l-31 -35 31 50 c31 51 97 135 106
135 3 0 -13 -22 -35 -48z m279 18 c-12 -16 -24 -30 -26 -30 -3 0 4 14 16 30
12 17 24 30 26 30 3 0 -4 -13 -16 -30z m-1200 -20 c-11 -22 -23 -40 -25 -40
-3 0 4 18 15 40 11 22 23 40 25 40 3 0 -4 -18 -15 -40z m834 -25 c-14 -19 -29
-35 -31 -35 -5 0 7 18 36 53 26 31 23 18 -5 -18z m-1094 22 c0 -2 -17 -19 -37
-38 l-38 -34 34 38 c33 34 41 42 41 34z m63 -22 c-3 -9 -8 -14 -10 -11 -3 3
-2 9 2 15 9 16 15 13 8 -4z m939 -82 c-33 -43 -65 -89 -72 -101 -6 -13 -14
-21 -17 -18 -3 2 5 20 18 38 39 55 121 158 126 158 2 0 -22 -35 -55 -77z
m-832 30 c-11 -21 -30 -49 -42 -63 l-20 -25 17 29 c10 16 26 44 37 63 27 46
34 42 8 -4z m1243 22 c-3 -9 -8 -14 -10 -11 -3 3 -2 9 2 15 9 16 15 13 8 -4z
m-1323 -8 c0 -2 -12 -14 -27 -28 l-28 -24 24 28 c23 25 31 32 31 24z m-117
-38 c-10 -17 -26 -38 -37 -47 -10 -9 -4 4 15 31 37 53 49 62 22 16z m1237 -9
c-6 -11 -13 -20 -16 -20 -2 0 0 9 6 20 6 11 13 20 16 20 2 0 0 -9 -6 -20z m40
-3 c0 -2 -15 -16 -32 -33 l-33 -29 29 33 c28 30 36 37 36 29z m-1225 -44 c-15
-36 -61 -103 -71 -103 -3 0 6 15 20 33 14 18 32 50 41 70 8 20 18 37 20 37 3
0 -2 -17 -10 -37z m1055 13 c0 -2 -8 -10 -17 -17 -16 -13 -17 -12 -4 4 13 16
21 21 21 13z m231 -13 c11 -15 11 -16 -1 -6 -11 10 -17 10 -29 0 -14 -11 -14
-10 -2 6 7 9 15 17 16 17 1 0 9 -8 16 -17z m-170 -81 c-11 -23 -25 -43 -30
-46 -5 -3 3 16 18 43 31 59 42 61 12 3z m-1022 -44 c-8 -14 -14 -17 -22 -9 -7
7 -6 15 3 25 17 22 32 9 19 -16z"/>
<path d="M1308 1131 c-18 -16 -30 -32 -26 -36 5 -6 68 51 68 61 0 9 -12 2 -42
-25z"/>
<path d="M965 525 c44 -15 136 -20 99 -5 -11 4 -47 11 -80 14 l-59 5 40 -14z"/>
<path d="M1531 402 c-13 -25 -14 -32 -2 -32 9 0 23 41 16 48 -2 2 -8 -5 -14
-16z"/>
</g>
</svg>
